<svg width="50" height="50" viewBox="0 0 50 50" fill="none" xmlns="http://www.w3.org/2000/svg">
<path d="M39.537 30.9729C38.5119 29.907 37.2754 29.3372 35.9649 29.3372C34.665 29.3372 33.418 29.8965 32.3506 30.9623L29.011 34.2865C28.7362 34.1387 28.4615 34.0015 28.1973 33.8644C27.8168 33.6744 27.4575 33.495 27.151 33.3051C24.0228 31.3211 21.18 28.7357 18.4534 25.3904C17.1323 23.723 16.2446 22.3195 15.5999 20.8948C16.4665 20.1034 17.2697 19.2803 18.0518 18.4888C18.3477 18.1933 18.6436 17.8873 18.9395 17.5918C21.1588 15.3757 21.1588 12.5053 18.9395 10.2892L16.0544 7.40824C15.7267 7.0811 15.3886 6.74341 15.0715 6.40572C14.4374 5.75144 13.7716 5.07605 13.0847 4.44288C12.0596 3.4298 10.8337 2.8916 9.54433 2.8916C8.25501 2.8916 7.00795 3.4298 5.95113 4.44288C5.94056 4.45343 5.94056 4.45343 5.93 4.46398L2.33679 8.08363C0.98406 9.4344 0.212579 11.0807 0.0434867 12.9907C-0.210151 16.0722 0.698717 18.9426 1.39622 20.821C3.10828 25.4326 5.66579 29.7065 9.48092 34.2865C14.1098 39.8056 19.6793 44.164 26.0413 47.2349C28.472 48.3851 31.7165 49.7465 35.3414 49.9786C35.5633 49.9892 35.7958 49.9997 36.0072 49.9997C38.4485 49.9997 40.4987 49.1239 42.1051 47.3826C42.1156 47.3615 42.1368 47.351 42.1473 47.3299C42.6969 46.665 43.331 46.0635 43.9968 45.4198C44.4512 44.9871 44.9162 44.5333 45.3707 44.0585C46.4169 42.9715 46.9665 41.7052 46.9665 40.4072C46.9665 39.0986 46.4063 37.8428 45.3389 36.7875L39.537 30.9729ZM43.3204 42.0851C43.3098 42.0851 43.3098 42.0956 43.3204 42.0851C42.9083 42.5283 42.4855 42.9293 42.0311 43.3725C41.3442 44.0268 40.6467 44.7127 39.9914 45.4831C38.924 46.6228 37.6664 47.161 36.0178 47.161C35.8592 47.161 35.6901 47.161 35.5316 47.1505C32.3929 46.95 29.476 45.7258 27.2884 44.6811C21.3068 41.7896 16.0544 37.6845 11.6897 32.4819C8.08592 28.1447 5.67636 24.1346 4.08055 19.829C3.09771 17.2013 2.73839 15.1541 2.89691 13.2229C3.00259 11.9882 3.47816 10.9646 4.35533 10.0887L7.9591 6.49014C8.47694 6.00471 9.02649 5.74088 9.56547 5.74088C10.2313 5.74088 10.7702 6.14189 11.1084 6.47959C11.119 6.49014 11.1296 6.50069 11.1401 6.51125C11.7848 7.11276 12.3978 7.73538 13.0424 8.40022C13.37 8.73791 13.7082 9.0756 14.0464 9.42385L16.9315 12.3048C18.0518 13.4234 18.0518 14.4576 16.9315 15.5762C16.625 15.8822 16.3291 16.1883 16.0227 16.4837C15.1349 17.3913 14.2895 18.2355 13.37 19.0586C13.3489 19.0797 13.3278 19.0903 13.3172 19.1114C12.4083 20.019 12.5774 20.9054 12.7676 21.5069C12.7782 21.5386 12.7888 21.5702 12.7993 21.6019C13.5497 23.417 14.6065 25.1266 16.2129 27.1633L16.2235 27.1738C19.1403 30.7618 22.2156 33.5583 25.6081 35.7006C26.0413 35.9749 26.4852 36.1966 26.9079 36.4076C27.2884 36.5976 27.6477 36.777 27.9542 36.9669C27.9965 36.988 28.0387 37.0197 28.081 37.0408C28.4403 37.2202 28.7785 37.3046 29.1273 37.3046C30.0044 37.3046 30.554 36.7559 30.7336 36.5765L34.348 32.9674C34.7073 32.6086 35.278 32.1759 35.9438 32.1759C36.599 32.1759 37.138 32.5875 37.4656 32.9463C37.4762 32.9568 37.4762 32.9568 37.4867 32.9674L43.3098 38.782C44.3984 39.8584 44.3984 40.9665 43.3204 42.0851Z" fill="black"/>
<path d="M27.024 11.8935C29.7928 12.3579 32.3081 13.6664 34.316 15.6715C36.324 17.6765 37.6239 20.1881 38.0995 22.953C38.2157 23.6495 38.8181 24.1349 39.505 24.1349C39.5896 24.1349 39.6636 24.1243 39.7481 24.1138C40.5302 23.9871 41.048 23.2484 40.9212 22.4675C40.3505 19.1223 38.7653 16.0725 36.3451 13.6559C33.925 11.2392 30.8708 9.65631 27.5207 9.08646C26.7386 8.95982 26.0094 9.47691 25.872 10.2473C25.7347 11.0176 26.2419 11.7669 27.024 11.8935Z" fill="black"/>
<path d="M49.9785 22.0562C49.038 16.5476 46.4382 11.5349 42.4434 7.54594C38.4486 3.55694 33.4287 0.960927 27.912 0.0217194C27.1406 -0.115468 26.4114 0.412177 26.274 1.18254C26.1472 1.96345 26.665 2.6916 27.447 2.82879C32.3718 3.66247 36.8633 5.99466 40.4354 9.55099C44.0075 13.1179 46.3325 17.6028 47.1674 22.5205C47.2836 23.217 47.886 23.7024 48.573 23.7024C48.6575 23.7024 48.7315 23.6919 48.816 23.6813C49.5875 23.5652 50.1159 22.8265 49.9785 22.0562Z" fill="black"/>
</svg>
