<svg width="18" height="20" viewBox="0 0 18 20" fill="none" xmlns="http://www.w3.org/2000/svg">
<path d="M15.6383 3.47738C14.1115 1.26762 11.6916 0 8.99981 0C6.30798 0 3.88817 1.26762 2.36133 3.47738C0.841998 5.67598 0.491178 8.45945 1.42102 10.9186C1.66973 11.5902 2.06508 12.2427 2.59329 12.8541L8.46743 19.7538C8.60028 19.91 8.79493 20 8.99981 20C9.20469 20 9.39934 19.91 9.53219 19.7538L15.4047 12.8559C15.9352 12.241 16.3301 11.5893 16.5767 10.9231C17.5084 8.45945 17.1576 5.67598 15.6383 3.47738ZM15.2672 10.4333C15.077 10.9473 14.7665 11.4555 14.3448 11.9443C14.3436 11.9454 14.3425 11.9466 14.3415 11.948L8.99981 18.2221L3.65481 11.9441C3.23337 11.4557 2.92286 10.9476 2.73079 10.4287C1.9618 8.39488 2.25364 6.09348 3.51169 4.27273C4.77368 2.44617 6.77415 1.39859 8.99981 1.39859C11.2254 1.39859 13.2257 2.44613 14.4877 4.27273C15.746 6.09348 16.0381 8.39488 15.2672 10.4333Z" fill="white"/>
<path d="M9.00105 4.14941C6.84184 4.14941 5.08496 5.90605 5.08496 8.06551C5.08496 10.225 6.8416 11.9816 9.00105 11.9816C11.1605 11.9816 12.9171 10.225 12.9171 8.06551C12.9171 5.90629 11.1603 4.14941 9.00105 4.14941ZM9.00105 10.583C7.61293 10.583 6.48355 9.45359 6.48355 8.06547C6.48355 6.67734 7.61293 5.54797 9.00105 5.54797C10.3892 5.54797 11.5186 6.67734 11.5186 8.06547C11.5186 9.45359 10.3892 10.583 9.00105 10.583Z" fill="white"/>
</svg>
