<svg width="30" height="30" viewBox="0 0 30 30" fill="none" xmlns="http://www.w3.org/2000/svg">
<g clip-path="url(#clip0_149_1323)">
<path d="M29.8246 12.5542C30.184 11.6122 29.9855 10.5043 29.2277 9.74649L20.2528 0.771631C19.2247 -0.256455 17.5519 -0.256338 16.5239 0.771631L6.434 10.8616H2.63672C1.18283 10.8616 0 12.0444 0 13.4983V27.3626C0 28.8165 1.18283 29.9993 2.63672 29.9993H27.3633C28.8172 29.9993 30 28.8165 30 27.3626V13.4983C30 13.1657 29.9375 12.8476 29.8246 12.5542ZM27.9156 10.9202C27.7374 10.8821 27.5527 10.8616 27.3633 10.8616H25.4588L26.6579 9.66253L27.9156 10.9202ZM25.4149 8.41958L22.9729 10.8616H20.4869L24.1719 7.17657L25.4149 8.41958ZM17.7669 2.01458C17.9383 1.84325 18.1634 1.75753 18.3884 1.75753C18.6135 1.75753 18.8385 1.84325 19.0099 2.01458L22.929 5.93368L18.001 10.8616H8.91984L17.7669 2.01458ZM28.2422 27.3626C28.2422 27.8472 27.8479 28.2415 27.3633 28.2415H2.63672C2.15209 28.2415 1.75781 27.8472 1.75781 27.3626V13.4983C1.75781 13.0137 2.15209 12.6194 2.63672 12.6194H27.3633C27.8479 12.6194 28.2422 13.0137 28.2422 13.4983V27.3626Z" fill="#CA2026"/>
<path d="M3.45703 23.8232H7.55291V25.5811H3.45703V23.8232Z" fill="#CA2026"/>
<path d="M9.78711 23.8232H13.8829V25.5811H9.78711V23.8232Z" fill="#CA2026"/>
<path d="M16.1172 23.8232H20.213V25.5811H16.1172V23.8232Z" fill="#CA2026"/>
<path d="M22.447 23.8232H26.5429V25.5811H22.447V23.8232Z" fill="#CA2026"/>
<path d="M7.98439 14.9631H4.98047C4.17275 14.9631 3.51562 15.6203 3.51562 16.428V18.7717C3.51562 19.5795 4.17275 20.2366 4.98047 20.2366H7.98439C8.79211 20.2366 9.44924 19.5795 9.44924 18.7717V16.428C9.44924 15.6203 8.79211 14.9631 7.98439 14.9631ZM7.69143 18.4788H5.27344V16.721H7.69143V18.4788Z" fill="#CA2026"/>
</g>
<defs>
<clipPath id="clip0_149_1323">
<rect width="30" height="30" fill="white"/>
</clipPath>
</defs>
</svg>
