<svg width="15" height="15" viewBox="0 0 15 15" fill="none" xmlns="http://www.w3.org/2000/svg">
<path d="M14.8973 0.102983C14.8027 0.00835378 14.6624 -0.0243708 14.5357 0.0186663L0.238834 4.86973C0.101607 4.91628 0.0070071 5.04229 0.000591073 5.18705C-0.00582496 5.3318 0.0772318 5.46569 0.209771 5.52422L6.63731 8.36297L9.47607 14.7905C9.5325 14.9182 9.65888 15 9.79757 15C9.80279 15 9.808 14.9999 9.81328 14.9997C9.95803 14.9932 10.084 14.8986 10.1306 14.7614L14.9817 0.464506C15.0246 0.337768 14.9919 0.197612 14.8973 0.102983ZM1.31928 5.24561L13.3343 1.1688L6.82558 7.67749L1.31928 5.24561ZM9.75465 13.681L7.32277 8.17468L13.8314 1.66603L9.75465 13.681Z" fill="white"/>
</svg>
