<svg width="15" height="15" viewBox="0 0 15 15" fill="none" xmlns="http://www.w3.org/2000/svg">
<path d="M5.33399 3.10635C5.20411 3.1035 5.07657 3.14115 4.9691 3.21413C4.86163 3.2871 4.77956 3.39181 4.73432 3.51358C4.68907 3.63536 4.68289 3.76818 4.71664 3.89363C4.75038 4.01908 4.82238 4.13085 4.92261 4.21349L8.74709 7.48985L4.92261 10.7651C4.85328 10.816 4.79521 10.8807 4.75205 10.9552C4.70888 11.0296 4.68156 11.1122 4.67178 11.1977C4.66199 11.2832 4.66997 11.3697 4.69521 11.452C4.72044 11.5343 4.76239 11.6105 4.81842 11.6758C4.87446 11.7411 4.94337 11.794 5.02085 11.8315C5.09833 11.8689 5.1827 11.8899 5.26869 11.8933C5.35468 11.8966 5.44042 11.8821 5.52055 11.8508C5.60069 11.8194 5.67348 11.7719 5.73438 11.7111L10.1131 7.9647C10.1818 7.90602 10.237 7.83319 10.2749 7.7511C10.3128 7.66902 10.3324 7.57967 10.3324 7.48928C10.3324 7.39888 10.3128 7.30954 10.2749 7.22745C10.237 7.14537 10.1818 7.07246 10.1131 7.01378L5.73438 3.26379C5.62377 3.16555 5.4819 3.10969 5.33399 3.10621V3.10635Z" fill="black"/>
</svg>
