<svg width="15" height="15" viewBox="0 0 15 15" fill="none" xmlns="http://www.w3.org/2000/svg">
<g clip-path="url(#clip0_153_1007)">
<path d="M7.49877 0C3.35682 0 -0.000976562 3.35805 -0.000976562 7.49985C-0.000976562 11.6417 3.35682 15 7.49877 15C11.6407 15 14.9989 11.6418 14.9989 7.49985C14.9989 3.35785 11.6407 0 7.49877 0ZM11.2671 6.1651L9.43282 7.9994C9.23387 8.19835 8.96937 8.3079 8.68807 8.3079C8.40682 8.3079 8.14227 8.1983 7.94332 7.9995L7.87147 7.92765L7.67617 8.12295L7.74787 8.19465C8.15857 8.60535 8.15857 9.2736 7.74787 9.6843L5.91382 11.5186C5.71487 11.7176 5.45037 11.8271 5.16892 11.8271C4.88752 11.8271 4.62297 11.7175 4.42392 11.5185L3.73067 10.825C3.31997 10.4145 3.31997 9.74635 3.73052 9.3355L5.56497 7.5013C5.76392 7.30235 6.02842 7.1928 6.30987 7.1928C6.59132 7.1928 6.85567 7.3024 7.05477 7.5013L7.12637 7.5729L7.32167 7.3776L7.25007 7.306C6.83937 6.89545 6.83937 6.2272 7.24982 5.8165L9.08427 3.9822C9.28332 3.78315 9.54787 3.67355 9.82917 3.67355C10.1105 3.67355 10.375 3.78315 10.5741 3.98205L11.2675 4.6757C11.6778 5.08615 11.6778 5.7545 11.2671 6.1651Z" fill="black"/>
<path d="M7.12675 8.6728L6.7721 9.02745L6.222 8.4775L6.57665 8.12285L6.50505 8.05125C6.45305 7.9994 6.38395 7.9707 6.31055 7.9707C6.237 7.9707 6.1679 7.99935 6.1159 8.05125L4.28161 9.8853C4.17436 9.99265 4.17436 10.1672 4.28161 10.2745L4.97511 10.9681C5.07926 11.0723 5.26051 11.0721 5.36441 10.9683L7.19845 9.13395C7.30585 9.0266 7.30585 8.8519 7.19845 8.7445L7.12675 8.6728Z" fill="black"/>
<path d="M10.023 4.53182C9.97095 4.47982 9.9017 4.45117 9.82815 4.45117C9.7546 4.45117 9.68535 4.47982 9.63335 4.53197L7.79906 6.36618C7.69196 6.47353 7.69196 6.64808 7.79921 6.75548L7.87091 6.82708L8.41491 6.28293L8.965 6.83303L8.42101 7.37718L8.49271 7.44888C8.59686 7.55273 8.77785 7.55288 8.882 7.44873L10.7162 5.61467C10.8235 5.50732 10.8235 5.33277 10.7162 5.22537L10.023 4.53182Z" fill="black"/>
</g>
<defs>
<clipPath id="clip0_153_1007">
<rect width="15" height="15" fill="white"/>
</clipPath>
</defs>
</svg>
