<svg width="15" height="15" viewBox="0 0 15 15" fill="none" xmlns="http://www.w3.org/2000/svg">
<path d="M14.2518 12.9467H4.22137C3.80796 12.9467 3.4729 12.6116 3.4729 12.1982C3.4729 11.7848 3.80796 11.4498 4.22137 11.4498H14.2516C14.665 11.4498 15 11.7848 15 12.1982C15 12.6116 14.6652 12.9467 14.2518 12.9467Z" fill="white"/>
<path d="M14.2518 8.24858H4.22137C3.80796 8.24858 3.4729 7.91352 3.4729 7.50011C3.4729 7.08671 3.80796 6.75165 4.22137 6.75165H14.2516C14.665 6.75165 15 7.08671 15 7.50011C15.0003 7.91352 14.6652 8.24858 14.2518 8.24858Z" fill="white"/>
<path d="M14.2518 3.55046H4.22137C3.80796 3.55046 3.4729 3.2154 3.4729 2.80199C3.4729 2.38859 3.80796 2.05353 4.22137 2.05353H14.2516C14.665 2.05353 15 2.38859 15 2.80199C15 3.2154 14.6652 3.55046 14.2518 3.55046Z" fill="white"/>
<path d="M1.00519 3.86505C1.56034 3.86505 2.01038 3.41502 2.01038 2.85986C2.01038 2.30471 1.56034 1.85468 1.00519 1.85468C0.450039 1.85468 0 2.30471 0 2.85986C0 3.41502 0.450039 3.86505 1.00519 3.86505Z" fill="white"/>
<path d="M1.00519 8.50531C1.56034 8.50531 2.01038 8.05527 2.01038 7.50012C2.01038 6.94497 1.56034 6.49493 1.00519 6.49493C0.450039 6.49493 0 6.94497 0 7.50012C0 8.05527 0.450039 8.50531 1.00519 8.50531Z" fill="white"/>
<path d="M1.00519 13.1455C1.56034 13.1455 2.01038 12.6955 2.01038 12.1404C2.01038 11.5852 1.56034 11.1352 1.00519 11.1352C0.450039 11.1352 0 11.5852 0 12.1404C0 12.6955 0.450039 13.1455 1.00519 13.1455Z" fill="white"/>
</svg>
