<svg width="10" height="10" viewBox="0 0 10 10" fill="none" xmlns="http://www.w3.org/2000/svg">
<g clip-path="url(#clip0_90_2168)">
<path d="M9.90536 9.45596L7.32352 6.91538C7.99962 6.18081 8.41504 5.20934 8.41504 4.14034C8.41471 1.85355 6.53115 0 4.20748 0C1.88381 0 0.000244141 1.85355 0.000244141 4.14034C0.000244141 6.42713 1.88381 8.28068 4.20748 8.28068C5.21147 8.28068 6.1323 7.93342 6.85561 7.35609L9.44746 9.90668C9.57375 10.0311 9.77878 10.0311 9.90507 9.90668C10.0316 9.78229 10.0316 9.58037 9.90536 9.45596ZM4.20748 7.64367C2.2414 7.64367 0.647586 6.07518 0.647586 4.14034C0.647586 2.2055 2.2414 0.637016 4.20748 0.637016C6.17357 0.637016 7.76737 2.2055 7.76737 4.14034C7.76737 6.07518 6.17357 7.64367 4.20748 7.64367Z" fill="white"/>
</g>
<defs>
<clipPath id="clip0_90_2168">
<rect width="10" height="10" fill="white"/>
</clipPath>
</defs>
</svg>
