<svg width="10" height="10" viewBox="0 0 10 10" fill="none" xmlns="http://www.w3.org/2000/svg">
<path d="M9.44444 6.83778C8.48556 6.83778 7.57111 6.62889 6.72778 6.21667C6.59556 6.15334 6.44222 6.14334 6.30222 6.19111C6.16222 6.24 6.04778 6.34223 5.98333 6.47445L5.58333 7.30223C4.38333 6.61334 3.38778 5.61667 2.69778 4.41667L3.52667 4.01667C3.66 3.95222 3.76111 3.83778 3.81 3.69778C3.85778 3.55778 3.84889 3.40445 3.78444 3.27222C3.37111 2.43 3.16222 1.51556 3.16222 0.555556C3.16222 0.248889 2.91333 0 2.60667 0H0.555556C0.248889 0 0 0.248889 0 0.555556C0 5.76334 4.23667 10 9.44444 10C9.75111 10 10 9.75112 10 9.44445V7.39334C10 7.08667 9.75111 6.83778 9.44444 6.83778Z" fill="#FAFAFA"/>
</svg>
