<svg width="15" height="15" viewBox="0 0 15 15" fill="none" xmlns="http://www.w3.org/2000/svg">
<path d="M11.0669 6.69196C11.1807 6.57408 11.2437 6.4162 11.2423 6.25233C11.2409 6.08846 11.1751 5.9317 11.0593 5.81582C10.9434 5.69994 10.7866 5.63421 10.6227 5.63279C10.4589 5.63136 10.301 5.69436 10.1831 5.80821L7.49999 8.49133L4.81686 5.80821C4.75921 5.74851 4.69024 5.7009 4.61399 5.66814C4.53774 5.63539 4.45573 5.61815 4.37274 5.61742C4.28975 5.6167 4.20745 5.63252 4.13064 5.66394C4.05383 5.69537 3.98405 5.74178 3.92537 5.80046C3.86668 5.85914 3.82028 5.92892 3.78885 6.00574C3.75743 6.08255 3.74161 6.16484 3.74233 6.24783C3.74305 6.33082 3.7603 6.41283 3.79305 6.48908C3.82581 6.56534 3.87342 6.6343 3.93311 6.69196L7.05811 9.81696C7.17532 9.93413 7.33426 9.99995 7.49999 9.99995C7.66572 9.99995 7.82466 9.93413 7.94186 9.81696L11.0669 6.69196Z" fill="black"/>
</svg>
