<svg width="15" height="15" viewBox="0 0 15 15" fill="none" xmlns="http://www.w3.org/2000/svg">
<path d="M11.0156 14.0625C10.1109 14.0625 9.375 13.3266 9.375 12.4219V6.2658C8.50078 5.70846 7.96875 4.74986 7.96875 3.70033C7.96875 2.55189 8.60531 1.51314 9.63 0.988612C9.77578 0.914549 9.94922 0.920643 10.0884 1.00596C10.2277 1.09174 10.3125 1.24267 10.3125 1.40627V3.43267L11.0156 3.71392L11.7188 3.43267V1.40627C11.7188 1.24267 11.8036 1.09174 11.9428 1.00596C12.082 0.920643 12.2555 0.914549 12.4012 0.988612C13.4259 1.51361 14.0625 2.55189 14.0625 3.7008C14.0625 4.74986 13.5305 5.70846 12.6562 6.26627V12.4219C12.6562 13.3266 11.9203 14.0625 11.0156 14.0625ZM9.375 2.37471C9.07641 2.74267 8.90625 3.20674 8.90625 3.70033C8.90625 4.49439 9.34734 5.21392 10.0575 5.57767C10.2141 5.65783 10.3125 5.81908 10.3125 5.99486V12.4219C10.3125 12.8095 10.628 13.125 11.0156 13.125C11.4033 13.125 11.7188 12.8095 11.7188 12.4219V5.99486C11.7188 5.81908 11.8172 5.65783 11.9738 5.57767C12.6839 5.21392 13.125 4.49486 13.125 3.7008C13.125 3.20721 12.9548 2.74314 12.6562 2.37517V3.75002C12.6562 3.94174 12.5395 4.11377 12.3619 4.18549L11.19 4.65424C11.078 4.69924 10.9537 4.69924 10.8417 4.65424L9.66984 4.18549C9.49172 4.11377 9.375 3.94174 9.375 3.75002V2.37471Z" fill="#CA2026"/>
<path d="M8.00344 14.0625H6.99703C6.51 14.0625 6.09938 13.6823 6.06234 13.1972L6.00328 12.4308C5.68172 12.3333 5.37047 12.2039 5.07281 12.0445L4.48875 12.5447C4.11891 12.862 3.56016 12.84 3.21609 12.4964L2.50359 11.7834C2.15953 11.4394 2.13797 10.8802 2.45484 10.5103L2.955 9.92672C2.79563 9.62906 2.66625 9.31781 2.56875 8.99625L1.80281 8.93766C1.31766 8.90109 0.9375 8.49047 0.9375 8.00344V6.99656C0.9375 6.50953 1.31766 6.09891 1.80328 6.06187L2.56922 6.00328C2.66672 5.68125 2.79609 5.37 2.95547 5.07281L2.45484 4.48828C2.13797 4.11891 2.15953 3.56016 2.50406 3.21516L3.21563 2.50313C3.56016 2.15859 4.11938 2.1375 4.48875 2.45438L5.07281 2.95453C5.37047 2.79516 5.68172 2.66578 6.00328 2.56828L6.06234 1.80188C6.09938 1.31766 6.51 0.9375 6.99656 0.9375H7.5C7.75875 0.9375 7.96875 1.14703 7.96875 1.40625C7.96875 1.66547 7.75875 1.875 7.5 1.875H6.99656L6.91219 2.97234C6.89625 3.17672 6.74953 3.34687 6.55031 3.39281C6.09703 3.49734 5.66578 3.67594 5.26875 3.92484C5.09578 4.03406 4.87125 4.01766 4.71516 3.88313L3.87844 3.16641L3.16688 3.87891L3.88359 4.71516C4.01719 4.87078 4.03359 5.09531 3.92484 5.26875C3.67641 5.66625 3.49734 6.0975 3.39281 6.55031C3.34688 6.75 3.17625 6.89672 2.97188 6.91219L1.875 6.99656V8.00344L2.97188 8.08781C3.17625 8.10328 3.34688 8.25047 3.39281 8.44969C3.49734 8.90297 3.67594 9.33422 3.92484 9.73125C4.03359 9.90469 4.01672 10.1292 3.88359 10.2848L3.16688 11.1211L3.87891 11.8336L4.71516 11.1169C4.87125 10.9828 5.09578 10.9664 5.26875 11.0752C5.66625 11.3236 6.0975 11.5027 6.55031 11.6072C6.75 11.6536 6.89672 11.8238 6.91219 12.0277L6.99656 13.125H8.00297C8.02266 12.8672 8.24719 12.6745 8.50641 12.6938C8.76469 12.7134 8.95781 12.9389 8.93766 13.1972C8.90063 13.6823 8.49 14.0625 8.00344 14.0625Z" fill="#CA2026"/>
<path d="M4.21875 7.50001C4.21875 5.89032 5.36906 4.52953 6.9539 4.26422C7.20843 4.21875 7.45124 4.39359 7.49343 4.64906C7.53608 4.90453 7.36405 5.14594 7.10858 5.1886C5.97749 5.37844 5.15625 6.35063 5.15625 7.50001C5.15625 9.1186 6.76405 10.2474 8.28139 9.71064C8.5242 9.62392 8.79327 9.75142 8.87998 9.99564C8.96623 10.2399 8.83873 10.5075 8.59452 10.5938C6.4603 11.3489 4.21875 9.75751 4.21875 7.50001Z" fill="#CA2026"/>
</svg>
