<svg width="50" height="50" viewBox="0 0 50 50" fill="none" xmlns="http://www.w3.org/2000/svg">
<path d="M45.6055 7H4.39453C1.97637 7 0 8.96768 0 11.3945V37.7617C0 40.1895 1.97764 42.1562 4.39453 42.1562H45.6055C48.0236 42.1562 50 40.1886 50 37.7617V11.3945C50 8.96709 48.0227 7 45.6055 7ZM44.9307 9.92969C43.5099 11.3552 26.8208 28.0986 26.1352 28.7865C25.5625 29.3609 24.4378 29.3613 23.8648 28.7865L5.06934 9.92969H44.9307ZM2.92969 37.2231V11.9331L15.5337 24.5781L2.92969 37.2231ZM5.06934 39.2266L17.602 26.6531L21.7899 30.8548C23.5062 32.5766 26.4945 32.5759 28.2102 30.8548L32.3981 26.6532L44.9307 39.2266H5.06934ZM47.0703 37.2231L34.4663 24.5781L47.0703 11.9331V37.2231Z" fill="black"/>
</svg>
