<svg width="15" height="15" viewBox="0 0 15 15" fill="none" xmlns="http://www.w3.org/2000/svg">
<g clip-path="url(#clip0_153_320)">
<path d="M1.30429 2.27168C0.584084 2.27168 0 2.85573 0 3.57646C0 4.29667 0.584084 4.88024 1.30429 4.88024C2.0245 4.88024 2.60859 4.29667 2.60859 3.57646C2.60859 2.85573 2.0245 2.27168 1.30429 2.27168Z" fill="#CA2026"/>
<path d="M1.30429 6.19575C0.584084 6.19575 0 6.77931 0 7.50003C0 8.22024 0.584084 8.80428 1.30429 8.80428C2.0245 8.80428 2.60859 8.22024 2.60859 7.50003C2.60859 6.77931 2.0245 6.19575 1.30429 6.19575Z" fill="#CA2026"/>
<path d="M1.30429 10.1195C0.584084 10.1195 0 10.7035 0 11.4237C0 12.1439 0.584084 12.728 1.30429 12.728C2.0245 12.728 2.60859 12.1439 2.60859 11.4237C2.60859 10.7035 2.0245 10.1195 1.30429 10.1195Z" fill="#CA2026"/>
<path d="M14.0194 2.59531H4.74153C4.19993 2.59531 3.76074 3.03449 3.76074 3.57658C3.76074 4.11821 4.1999 4.55737 4.74153 4.55737H14.0194C14.5609 4.55737 15.0002 4.11821 15.0002 3.57658C15.0002 3.03449 14.5609 2.59531 14.0194 2.59531Z" fill="#CA2026"/>
<path d="M14.0194 6.51901H4.74153C4.19993 6.51901 3.76074 6.95817 3.76074 7.50029C3.76074 8.04192 4.1999 8.48108 4.74153 8.48108H14.0194C14.5609 8.48108 15.0002 8.04192 15.0002 7.50029C15.0002 6.95817 14.5609 6.51901 14.0194 6.51901Z" fill="#CA2026"/>
<path d="M14.0194 10.443H4.74153C4.19993 10.443 3.76074 10.8822 3.76074 11.4238C3.76074 11.9654 4.1999 12.4046 4.74153 12.4046H14.0194C14.5609 12.4046 15.0002 11.9654 15.0002 11.4238C15.0002 10.8821 14.5609 10.443 14.0194 10.443Z" fill="#CA2026"/>
</g>
<defs>
<clipPath id="clip0_153_320">
<rect width="15" height="15" fill="white"/>
</clipPath>
</defs>
</svg>
