<svg width="15" height="15" viewBox="0 0 15 15" fill="none" xmlns="http://www.w3.org/2000/svg">
<path d="M6.03704 12.0696C7.37776 12.0696 8.68013 11.6222 9.73787 10.7982L13.7284 14.7893C14.0265 15.0773 14.5015 15.069 14.7894 14.7709C15.0702 14.48 15.0702 14.019 14.7894 13.7282L10.7989 9.73707C12.8432 7.10508 12.3671 3.31394 9.73556 1.26931C7.10397 -0.775323 3.31343 -0.299199 1.26911 2.33279C-0.775205 4.96478 -0.299154 8.75592 2.33244 10.8006C3.39189 11.6237 4.69544 12.0703 6.03704 12.0696ZM2.83072 2.82884C4.60154 1.05772 7.4726 1.05769 9.24345 2.82878C11.0143 4.59986 11.0143 7.47136 9.24352 9.24248C7.4727 11.0136 4.60164 11.0136 2.83078 9.24255C2.83075 9.24251 2.83075 9.24251 2.83072 9.24248C1.0599 7.4843 1.04947 4.62327 2.80738 2.85218C2.81515 2.84438 2.82292 2.83661 2.83072 2.82884Z" fill="white"/>
</svg>
