<svg width="15" height="15" viewBox="0 0 15 15" fill="none" xmlns="http://www.w3.org/2000/svg">
<path d="M12.1884 5.625H9.84375V3.29344C9.84375 2.51109 9.20766 1.875 8.42531 1.875C7.99219 1.875 7.58859 2.06906 7.31766 2.4075L4.58859 5.81906C4.50281 5.70422 4.37297 5.625 4.21875 5.625H1.40625C1.14703 5.625 0.9375 5.835 0.9375 6.09375V12.6562C0.9375 12.915 1.14703 13.125 1.40625 13.125H4.21875C4.47281 13.125 4.6875 12.9464 4.6875 12.5944L5.36484 13.0463C5.44172 13.0973 5.53266 13.125 5.625 13.125H11.4717C12.0956 13.125 12.6516 12.7055 12.8231 12.105L13.9898 8.01516C14.3316 6.81609 13.4334 5.625 12.1884 5.625ZM3.75 12.1875H1.875V6.5625H3.75V12.1875ZM13.088 7.75781L11.9212 11.8477C11.8645 12.0478 11.6794 12.1875 11.4717 12.1875H5.76703L4.6875 11.468V7.19578L8.04938 2.99344C8.14125 2.87859 8.27813 2.8125 8.42531 2.8125C8.69063 2.8125 8.90625 3.02813 8.90625 3.29344V6.09375C8.90625 6.3525 9.11578 6.5625 9.375 6.5625H12.1884C12.8095 6.5625 13.2591 7.15734 13.088 7.75781Z" fill="#CA2026"/>
<path d="M3.28125 10.7812C3.28125 11.04 3.07125 11.25 2.8125 11.25C2.55375 11.25 2.34375 11.04 2.34375 10.7812C2.34375 10.5225 2.55375 10.3125 2.8125 10.3125C3.07125 10.3125 3.28125 10.5225 3.28125 10.7812Z" fill="#CA2026"/>
</svg>
