<svg width="20" height="16" viewBox="0 0 20 16" fill="none" xmlns="http://www.w3.org/2000/svg">
<path d="M18.2422 0.96875H1.75781C0.790547 0.96875 0 1.75582 0 2.72656V13.2734C0 14.2445 0.791055 15.0312 1.75781 15.0312H18.2422C19.2095 15.0312 20 14.2442 20 13.2734V2.72656C20 1.75559 19.2091 0.96875 18.2422 0.96875ZM17.9723 2.14062C17.4039 2.71082 10.7283 9.4082 10.4541 9.68336C10.225 9.91312 9.77512 9.91328 9.54594 9.68336L2.02773 2.14062H17.9723ZM1.17188 13.058V2.94199L6.21348 8L1.17188 13.058ZM2.02773 13.8594L7.04078 8.83L8.71598 10.5107C9.40246 11.1994 10.5978 11.1991 11.2841 10.5107L12.9593 8.83004L17.9723 13.8594H2.02773ZM18.8281 13.058L13.7865 8L18.8281 2.94199V13.058Z" fill="black"/>
</svg>
