<svg width="15" height="15" viewBox="0 0 15 15" fill="none" xmlns="http://www.w3.org/2000/svg">
<path d="M7.5 15C11.6421 15 15 11.6421 15 7.5C15 3.35786 11.6421 0 7.5 0C3.35786 0 0 3.35786 0 7.5C0 11.6421 3.35786 15 7.5 15Z" fill="#334C8C"/>
<path d="M9.40095 6.79046L9.2766 7.83454C9.27124 7.88304 9.2481 7.92783 9.21165 7.96027C9.1752 7.99271 9.12803 8.01049 9.07924 8.0102H7.99371V11.1089C7.99397 11.1459 7.9796 11.1815 7.95371 11.2079C7.92783 11.2344 7.89254 11.2495 7.85555 11.25H6.7493C6.7309 11.2497 6.71273 11.2459 6.69582 11.2386C6.67892 11.2313 6.66362 11.2208 6.65079 11.2076C6.63796 11.1944 6.62785 11.1788 6.62105 11.1617C6.61425 11.1446 6.61088 11.1263 6.61114 11.1079L6.61706 8.0102H5.79502C5.74268 8.0102 5.69248 7.9894 5.65546 7.95239C5.61845 7.91538 5.59766 7.86517 5.59766 7.81283V6.76875C5.59766 6.7164 5.61845 6.6662 5.65546 6.62919C5.69248 6.59218 5.74268 6.57138 5.79502 6.57138H6.61213V5.55888C6.61213 4.3875 7.30884 3.75 8.32924 3.75H9.16509C9.21744 3.75 9.26764 3.77079 9.30465 3.80781C9.34167 3.84482 9.36246 3.89502 9.36246 3.94737V4.82664C9.36246 4.87899 9.34167 4.92919 9.30465 4.96621C9.26764 5.00322 9.21744 5.02401 9.16509 5.02401H8.65292C8.09831 5.03289 7.99371 5.29836 7.99371 5.69507V6.56842H9.20851C9.23623 6.5689 9.26353 6.5752 9.28865 6.58693C9.31376 6.59866 9.33612 6.61555 9.35428 6.6365C9.37243 6.65745 9.38597 6.68198 9.39401 6.70851C9.40205 6.73504 9.40442 6.76296 9.40095 6.79046Z" fill="white"/>
</svg>
