<svg width="15" height="15" viewBox="0 0 15 15" fill="none" xmlns="http://www.w3.org/2000/svg">
<g clip-path="url(#clip0_153_305)">
<path d="M14.598 10.7384L11.2434 7.38299C11.8728 5.954 11.6035 4.22133 10.4349 3.05248C8.91244 1.52962 6.44802 1.52941 4.92533 3.05248C3.4064 4.57177 3.4064 7.04383 4.92533 8.56312C6.13236 9.77041 7.90127 10.0003 9.31341 9.34746L12.6509 12.6857C13.189 13.2239 14.06 13.224 14.5981 12.6856C15.1348 12.1487 15.1347 11.2753 14.598 10.7384ZM5.5469 7.94167C4.37054 6.76506 4.37054 4.85057 5.5469 3.67392C6.72585 2.49467 8.63419 2.49447 9.81336 3.67392C10.9897 4.85057 10.9897 6.76506 9.81336 7.94167C8.63437 9.12095 6.72603 9.12113 5.5469 7.94167ZM13.9765 12.0643C13.7819 12.2589 13.467 12.259 13.2724 12.0643L10.0838 8.87488C10.3459 8.66856 10.5795 8.43166 10.7823 8.16498L13.9764 11.3598C14.1706 11.5541 14.1706 11.87 13.9765 12.0643Z" fill="#CA2026"/>
<path d="M0.439473 7.17635H2.31344C2.55615 7.17635 2.75292 6.97959 2.75292 6.73688C2.75292 6.49418 2.55615 6.29741 2.31344 6.29741H0.439473C0.196767 6.29741 0 6.49418 0 6.73688C0 6.97959 0.196767 7.17635 0.439473 7.17635Z" fill="#CA2026"/>
<path d="M0.439473 9.05122H3.01619C3.2589 9.05122 3.45566 8.85445 3.45566 8.61174C3.45566 8.36904 3.2589 8.17227 3.01619 8.17227H0.439473C0.196767 8.17227 0 8.36904 0 8.61174C0 8.85445 0.196767 9.05122 0.439473 9.05122Z" fill="#CA2026"/>
<path d="M0.439473 10.9265H4.89019C5.1329 10.9265 5.32966 10.7298 5.32966 10.4871C5.32966 10.2444 5.1329 10.0476 4.89019 10.0476H0.439473C0.196767 10.0476 0 10.2444 0 10.4871C0 10.7298 0.196767 10.9265 0.439473 10.9265Z" fill="#CA2026"/>
<path d="M10.0437 11.9227H0.439473C0.196767 11.9227 0 12.1195 0 12.3622C0 12.6049 0.196767 12.8017 0.439473 12.8017H10.0437C10.2864 12.8017 10.4832 12.6049 10.4832 12.3622C10.4832 12.1195 10.2864 11.9227 10.0437 11.9227Z" fill="#CA2026"/>
</g>
<defs>
<clipPath id="clip0_153_305">
<rect width="15" height="15" fill="white"/>
</clipPath>
</defs>
</svg>
