<svg width="30" height="30" viewBox="0 0 30 30" fill="none" xmlns="http://www.w3.org/2000/svg">
<path d="M23.1031 6.36387L21.6558 8.22314C24.7755 10.6506 26.3316 14.5807 25.7174 18.4807C25.2675 21.3424 23.7298 23.8577 21.3879 25.5635C19.0453 27.2684 16.1797 27.9614 13.3179 27.5092C7.4103 26.579 3.35965 21.0162 4.28829 15.1081C4.7382 12.2461 6.27637 9.73066 8.61855 8.02528C10.6635 6.53665 13.107 5.82167 15.5989 5.96349L13.5622 8.10021L15.0731 9.54208L18.2882 6.16678L18.289 6.16801L19.7293 4.65554L18.2195 3.21522L18.2187 3.21568L14.8446 0L13.4032 1.51247L15.6017 3.60646C12.6131 3.46511 9.6859 4.33444 7.2321 6.1211C4.38133 8.19682 2.50952 11.2583 1.96144 14.7425C0.830921 21.9332 5.76081 28.7051 12.9516 29.8367C13.6466 29.9463 14.3413 30 15.0315 30C17.8013 30 20.4926 29.1294 22.7744 27.4677C25.6254 25.3917 27.497 22.3302 28.045 18.8468C28.7927 14.1009 26.8989 9.31743 23.1031 6.36387Z" fill="#CA2026"/>
<path d="M16.2966 23.5287V23.5283H16.2967V22.1725C17.9042 21.993 19.4683 20.9775 19.4683 19.0497C19.4683 16.4302 17.0326 16.1299 15.2535 15.9108C14.116 15.7749 13.2454 15.6171 13.2454 14.928C13.2454 13.9699 14.5958 13.8667 15.1766 13.8667C16.0385 13.8667 16.9581 14.2718 17.2705 14.7889L17.3613 14.9393L19.1482 14.1124L19.0598 13.9321C18.3939 12.5708 17.2006 12.1769 16.2962 12.0179V10.8242H14.2038V12.0128C12.2558 12.3001 11.099 13.3813 11.099 14.928C11.099 17.45 13.389 17.706 15.0597 17.8933C16.5486 18.0689 17.2418 18.4367 17.2418 19.0497C17.2418 20.2206 15.6201 20.3121 15.123 20.3121C14.0165 20.3121 12.9496 19.76 12.641 19.0269L12.5644 18.8459L10.623 19.669L10.7005 19.85C11.2753 21.1955 12.5158 22.0387 14.2041 22.2381V23.5287H16.2966Z" fill="#CA2026"/>
</svg>
