<svg width="15" height="15" viewBox="0 0 15 15" fill="none" xmlns="http://www.w3.org/2000/svg">
<path d="M12.8667 3.4364C11.4014 2.07983 9.07734 1.99171 7.5 3.17108C5.92266 1.99218 3.59859 2.0803 2.13328 3.4364C1.36219 4.14983 0.9375 5.10186 0.9375 6.11624C0.9375 7.13061 1.36219 8.08265 2.13328 8.79655L7.18172 13.4691C7.27172 13.552 7.38562 13.5937 7.5 13.5937C7.61438 13.5937 7.72828 13.552 7.81875 13.4691L12.8672 8.79608C13.6378 8.08265 14.0625 7.13108 14.0625 6.11624C14.0625 5.1014 13.6378 4.14983 12.8667 3.4364ZM12.2297 8.10843L7.5 12.4866L2.77031 8.1089C2.19328 7.57452 1.875 6.86671 1.875 6.11624C1.875 5.36577 2.19328 4.65843 2.77031 4.12405C3.98625 2.99811 5.96531 2.99858 7.18125 4.12405C7.36172 4.28999 7.63828 4.28999 7.81828 4.12405C9.03422 2.99858 11.0133 2.99858 12.2292 4.12405C12.8063 4.65843 13.1245 5.36577 13.1245 6.11624C13.1245 6.86671 12.8067 7.57452 12.2297 8.10843Z" fill="#CA2026"/>
</svg>
