<svg width="15" height="15" viewBox="0 0 15 15" fill="none" xmlns="http://www.w3.org/2000/svg">
<path d="M6.50343 14.5239C6.50309 14.5239 6.50266 14.5239 6.50223 14.5239C6.06218 14.5236 5.64839 14.3519 5.33734 14.0404L0.956195 9.65295C0.315383 9.01093 0.315383 7.96629 0.956195 7.32436L6.86203 1.40719C7.47066 0.797367 8.28047 0.461426 9.14221 0.461426H12.8891C13.7978 0.461426 14.5371 1.2006 14.5371 2.10937V5.84481C14.5371 6.70595 14.2015 7.51542 13.5923 8.12396L7.66807 14.042C7.35685 14.3528 6.94323 14.5239 6.50343 14.5239ZM9.14221 1.56006C8.57435 1.56006 8.04075 1.78142 7.63966 2.18327L1.73373 8.10044C1.5201 8.3145 1.5201 8.66263 1.73373 8.87669L6.11488 13.2641C6.21847 13.3679 6.35632 13.4252 6.50309 13.4253H6.50352C6.65012 13.4253 6.78796 13.3682 6.89164 13.2647L12.8158 7.34676C13.2174 6.94576 13.4385 6.41224 13.4385 5.84481V2.10937C13.4385 1.80648 13.192 1.56006 12.8891 1.56006H9.14221ZM10.5545 6.03699C9.64578 6.03699 8.90652 5.29781 8.90652 4.38904C8.90652 3.48026 9.64578 2.74109 10.5545 2.74109C11.4632 2.74109 12.2024 3.48026 12.2024 4.38904C12.2024 5.29781 11.4632 6.03699 10.5545 6.03699ZM10.5545 3.83972C10.2516 3.83972 10.0052 4.08614 10.0052 4.38904C10.0052 4.69193 10.2516 4.93835 10.5545 4.93835C10.8575 4.93835 11.1038 4.69193 11.1038 4.38904C11.1038 4.08614 10.8575 3.83972 10.5545 3.83972Z" fill="#CA2026"/>
</svg>
