<svg width="50" height="50" viewBox="0 0 50 50" fill="none" xmlns="http://www.w3.org/2000/svg">
<path d="M41.5952 8.69346C37.7781 3.16904 31.7286 0 24.999 0C18.2694 0 12.2199 3.16904 8.40285 8.69346C4.60451 14.1899 3.72746 21.1486 6.05207 27.2966C6.67384 28.9755 7.66222 30.6066 8.98273 32.1352L23.6681 49.3846C24.0002 49.775 24.4868 50 24.999 50C25.5112 50 25.9979 49.7751 26.33 49.3846L41.0112 32.1398C42.3376 30.6025 43.3247 28.9731 43.9413 27.3077C46.2706 21.1486 45.3936 14.1899 41.5952 8.69346ZM40.6675 26.0833C40.192 27.3683 39.4157 28.6387 38.3615 29.8606C38.3586 29.8636 38.3557 29.8665 38.3533 29.87L24.999 45.5554L11.6365 29.8602C10.5829 28.6393 9.80666 27.3689 9.32648 26.0717C7.40402 20.9872 8.13361 15.2337 11.2787 10.6818C14.4337 6.11543 19.4349 3.49648 24.999 3.49648C30.5631 3.49648 35.5637 6.11533 38.7188 10.6818C41.8645 15.2337 42.5946 20.9872 40.6675 26.0833Z" fill="black"/>
<path d="M25.0012 10.373C19.6031 10.373 15.2109 14.7646 15.2109 20.1633C15.2109 25.5619 19.6025 29.9535 25.0012 29.9535C30.3998 29.9535 34.7914 25.5619 34.7914 20.1633C34.7914 14.7652 30.3992 10.373 25.0012 10.373ZM25.0012 26.4569C21.5309 26.4569 18.7074 23.6335 18.7074 20.1632C18.7074 16.6929 21.5309 13.8694 25.0012 13.8694C28.4715 13.8694 31.2949 16.6929 31.2949 20.1632C31.2949 23.6335 28.4715 26.4569 25.0012 26.4569Z" fill="black"/>
</svg>
