<svg width="18" height="18" viewBox="0 0 18 18" fill="none" xmlns="http://www.w3.org/2000/svg">
<path d="M6 2.25H4.5C3.25736 2.25 2.25 3.25736 2.25 4.5V6C2.25 7.24263 3.25736 8.24999 4.5 8.24999H6C7.24264 8.24999 8.25 7.24263 8.25 6V4.5C8.25 3.25736 7.24264 2.25 6 2.25Z" fill="black"/>
<path d="M6 9.75H4.5C3.25736 9.75 2.25 10.7574 2.25 12V13.5C2.25 14.7426 3.25736 15.75 4.5 15.75H6C7.24264 15.75 8.25 14.7426 8.25 13.5V12C8.25 10.7574 7.24264 9.75 6 9.75Z" fill="black"/>
<path d="M13.5 2.25H12C10.7574 2.25 9.75 3.25736 9.75 4.5V6C9.75 7.24263 10.7574 8.24999 12 8.24999H13.5C14.7426 8.24999 15.75 7.24263 15.75 6V4.5C15.75 3.25736 14.7426 2.25 13.5 2.25Z" fill="black"/>
<path d="M13.5 9.75H12C10.7574 9.75 9.75 10.7574 9.75 12V13.5C9.75 14.7426 10.7574 15.75 12 15.75H13.5C14.7426 15.75 15.75 14.7426 15.75 13.5V12C15.75 10.7574 14.7426 9.75 13.5 9.75Z" fill="black"/>
</svg>
