<svg width="15" height="15" viewBox="0 0 15 15" fill="none" xmlns="http://www.w3.org/2000/svg">
<path d="M7.5 15C11.6421 15 15 11.6421 15 7.5C15 3.35786 11.6421 0 7.5 0C3.35786 0 0 3.35786 0 7.5C0 11.6421 3.35786 15 7.5 15Z" fill="#0B69C7"/>
<path d="M5.82212 4.77336C5.82232 4.97604 5.76238 5.17422 5.6499 5.34282C5.53742 5.51142 5.37745 5.64287 5.19023 5.72052C5.00302 5.79817 4.79698 5.81854 4.59818 5.77905C4.39939 5.73956 4.21678 5.64198 4.07346 5.49866C3.93014 5.35535 3.83257 5.17273 3.79307 4.97394C3.75358 4.77514 3.77395 4.5691 3.8516 4.38189C3.92925 4.19467 4.0607 4.0347 4.2293 3.92222C4.3979 3.80974 4.59609 3.74981 4.79877 3.75C5.0701 3.75026 5.33024 3.85816 5.5221 4.05002C5.71396 4.24188 5.82186 4.50203 5.82212 4.77336Z" fill="white"/>
<path d="M5.33906 6.22412H4.26143C4.12136 6.22412 4.00781 6.33767 4.00781 6.47774V10.9965C4.00781 11.1366 4.12136 11.2501 4.26143 11.2501H5.33906C5.47913 11.2501 5.59268 11.1366 5.59268 10.9965V6.47774C5.59268 6.33767 5.47913 6.22412 5.33906 6.22412Z" fill="white"/>
<path d="M11.2251 8.82918V11.017C11.2251 11.0788 11.2005 11.138 11.1569 11.1817C11.1132 11.2254 11.054 11.2499 10.9922 11.2499H9.83561C9.77384 11.2499 9.71461 11.2254 9.67093 11.1817C9.62725 11.138 9.60272 11.0788 9.60272 11.017V8.89727C9.60272 8.5805 9.69449 7.51569 8.77574 7.51569C8.06324 7.51569 7.91818 8.24793 7.88758 8.57655V11.0219C7.8863 11.0825 7.86147 11.1402 7.81836 11.1828C7.77524 11.2253 7.71724 11.2494 7.65666 11.2499H6.53758C6.50696 11.25 6.47662 11.2441 6.44831 11.2324C6.41999 11.2208 6.39426 11.2036 6.37261 11.182C6.35096 11.1603 6.33381 11.1346 6.32215 11.1063C6.31049 11.078 6.30456 11.0476 6.30469 11.017V6.4578C6.30456 6.42713 6.31049 6.39674 6.32213 6.36837C6.33378 6.34 6.35091 6.31421 6.37255 6.29248C6.39419 6.27075 6.41991 6.2535 6.44823 6.24174C6.47655 6.22997 6.50692 6.22392 6.53758 6.22392H7.65666C7.68771 6.22339 7.71855 6.22905 7.74738 6.24057C7.77621 6.25209 7.80246 6.26924 7.8246 6.29101C7.84674 6.31278 7.86432 6.33874 7.87632 6.36737C7.88832 6.39601 7.8945 6.42675 7.89449 6.4578V6.85253C8.15897 6.4578 8.55173 6.1499 9.38758 6.1499C11.2359 6.14892 11.2251 7.87885 11.2251 8.82918Z" fill="white"/>
</svg>
