<svg width="30" height="30" viewBox="0 0 30 30" fill="none" xmlns="http://www.w3.org/2000/svg">
<path d="M26.7773 4.6875H25.8984V2.63672C25.8984 1.18283 24.7156 0 23.2617 0C21.8078 0 20.625 1.18283 20.625 2.63672V3.35654C20.625 4.26732 20.0134 5.0782 19.1376 5.3284L18.2812 5.57309V5.56641C18.2812 5.08102 17.8877 4.6875 17.4023 4.6875H13.8867C13.4013 4.6875 13.0078 5.08102 13.0078 5.56641V9.49219H2.63672C1.18283 9.49219 0 10.675 0 12.1289V29.1211C0 29.4452 0.178418 29.7431 0.46418 29.896C0.594141 29.9656 0.736641 30 0.878848 30C1.04936 30 1.21939 29.9504 1.36641 29.8523L4.66066 27.6562H21.3867C22.8406 27.6562 24.0234 26.4734 24.0234 25.0195V15.8203H26.7773C28.5543 15.8203 30 14.3746 30 12.5977V7.91016C30 6.13318 28.5543 4.6875 26.7773 4.6875ZM14.7656 6.44531H16.5234V14.0625H14.7656V6.44531ZM22.2656 25.0195C22.2656 25.5042 21.8713 25.8984 21.3867 25.8984H4.39453C4.22104 25.8984 4.05141 25.9498 3.90703 26.0461L1.75781 27.4789V12.1289C1.75781 11.6443 2.15209 11.25 2.63672 11.25H13.0078V14.9414C13.0078 15.4268 13.4013 15.8203 13.8867 15.8203H17.4023C17.8539 15.8203 18.2255 15.4796 18.2752 15.0414C19.0581 15.5408 19.9788 15.8203 20.9362 15.8203H22.2656V25.0195ZM28.2422 12.5977C28.2422 13.4054 27.5851 14.0625 26.7773 14.0625H20.9362C19.8676 14.0625 18.8695 13.5234 18.2812 12.6418V7.40127L19.6205 7.01865C21.2469 6.55395 22.3828 5.04803 22.3828 3.35654V2.63672C22.3828 2.15209 22.7771 1.75781 23.2617 1.75781C23.7463 1.75781 24.1406 2.15209 24.1406 2.63672V5.56641C24.1406 6.0518 24.5341 6.44531 25.0195 6.44531H26.7773C27.5851 6.44531 28.2422 7.10244 28.2422 7.91016V12.5977Z" fill="#CA2026"/>
<path d="M4.39453 16.5234H10.2539C10.7393 16.5234 11.1328 16.1299 11.1328 15.6445C11.1328 15.1591 10.7393 14.7656 10.2539 14.7656H4.39453C3.90914 14.7656 3.51562 15.1591 3.51562 15.6445C3.51562 16.1299 3.90914 16.5234 4.39453 16.5234Z" fill="#CA2026"/>
<path d="M19.6289 18.2812H4.39453C3.90914 18.2812 3.51562 18.6748 3.51562 19.1602C3.51562 19.6455 3.90914 20.0391 4.39453 20.0391H19.6289C20.1143 20.0391 20.5078 19.6455 20.5078 19.1602C20.5078 18.6748 20.1143 18.2812 19.6289 18.2812Z" fill="#CA2026"/>
<path d="M19.6289 21.7969H4.39453C3.90914 21.7969 3.51562 22.1904 3.51562 22.6758C3.51562 23.1612 3.90914 23.5547 4.39453 23.5547H19.6289C20.1143 23.5547 20.5078 23.1612 20.5078 22.6758C20.5078 22.1904 20.1143 21.7969 19.6289 21.7969Z" fill="#CA2026"/>
</svg>
